<?xml version="1.0" encoding="UTF-8" standalone="no"?>
<!DOCTYPE svg PUBLIC "-//W3C//DTD SVG 1.1//EN" "http://www.w3.org/Graphics/SVG/1.1/DTD/svg11.dtd">
<svg width="100%" height="100%" viewBox="0 0 36 36" version="1.1" xmlns="http://www.w3.org/2000/svg" xmlns:xlink="http://www.w3.org/1999/xlink" xml:space="preserve" xmlns:serif="http://www.serif.com/" style="fill-rule:evenodd;clip-rule:evenodd;stroke-linejoin:round;stroke-miterlimit:2;">
    <g transform="matrix(0.045,0,0,0.045,-5.16429e-14,-5.16429e-14)">
        <g>
            <g>
                <path d="M400,-0C179.438,-0 -0,179.438 -0,400C-0,620.562 179.438,800 400,800C620.562,800 800,620.562 800,400C800,179.438 620.562,-0 400,-0ZM400,769.809C196.079,769.809 30.191,603.914 30.191,400C30.191,196.086 196.079,30.187 400,30.187C603.921,30.187 769.809,196.086 769.809,400C769.809,603.914 603.921,769.809 400,769.809Z" style="fill-opacity:0.42;fill-rule:nonzero;"/>
                <path d="M657.058,312.014C652.667,309.259 647.138,308.97 642.45,311.234L546.949,357.704L546.949,347.282C546.949,305.602 513.104,271.701 471.494,271.701L211.304,271.701C169.693,271.697 135.849,305.602 135.849,347.278L135.849,482.906C135.849,524.585 169.693,558.486 211.304,558.486L471.49,558.486C513.101,558.486 546.945,524.581 546.945,482.906L546.945,481.992L642.446,528.463C647.134,530.742 652.648,530.445 657.055,527.682C661.465,524.927 664.148,520.091 664.148,514.885L664.148,324.808C664.148,319.602 661.465,314.769 657.058,312.014ZM633.96,490.756L538.455,444.286C533.782,442.007 528.238,442.303 523.847,445.066C519.44,447.821 516.758,452.658 516.758,457.863L516.758,482.906C516.758,507.937 496.445,528.299 471.49,528.299L211.304,528.299C186.349,528.299 166.036,507.933 166.036,482.906L166.036,347.278C166.036,322.247 186.349,301.885 211.304,301.885L471.49,301.885C496.445,301.885 516.758,322.247 516.758,347.278L516.758,381.83C516.758,387.032 519.44,391.868 523.847,394.627C528.238,397.382 533.798,397.686 538.455,395.407L633.96,348.937L633.96,490.756Z" style="fill-opacity:0.42;fill-rule:nonzero;"/>
            </g>
        </g>
    </g>
</svg>
